<?xml version="1.0" encoding="utf-8"?>
<!-- Generator: Adobe Illustrator 17.0.0, SVG Export Plug-In . SVG Version: 6.00 Build 0)  -->
<!DOCTYPE svg PUBLIC "-//W3C//DTD SVG 1.1//EN" "http://www.w3.org/Graphics/SVG/1.1/DTD/svg11.dtd">
<svg version="1.1" id="Layer_1" xmlns="http://www.w3.org/2000/svg" xmlns:xlink="http://www.w3.org/1999/xlink" x="0px" y="0px"
	 width="1000px" height="1000px" viewBox="0 0 1000 1000" enable-background="new 0 0 1000 1000" xml:space="preserve">
<g opacity="0.5">
	<g>
		<path fill="#FFFFFF" d="M500,20c64.808,0,127.668,12.688,186.831,37.713c57.156,24.175,108.491,58.787,152.58,102.876
			s78.701,95.424,102.876,152.58C967.312,372.332,980,435.192,980,500s-12.688,127.668-37.713,186.831
			c-24.175,57.156-58.787,108.491-102.876,152.58s-95.424,78.701-152.58,102.876C627.668,967.312,564.808,980,500,980
			s-127.668-12.688-186.831-37.713c-57.156-24.175-108.491-58.787-152.58-102.876s-78.701-95.424-102.876-152.58
			C32.688,627.668,20,564.808,20,500s12.688-127.668,37.713-186.831c24.175-57.156,58.787-108.491,102.876-152.58
			s95.424-78.701,152.58-102.876C372.332,32.688,435.192,20,500,20 M500,0C223.858,0,0,223.858,0,500s223.858,500,500,500
			s500-223.858,500-500S776.142,0,500,0L500,0z"/>
	</g>
	<g>
		<path fill="#FFFFFF" d="M522.727,84.546c59.469,0,117.15,11.643,171.439,34.605c52.447,22.183,99.553,53.944,140.009,94.401
			c40.457,40.456,72.218,87.563,94.401,140.009c22.963,54.29,34.606,111.97,34.606,171.439s-11.643,117.15-34.606,171.439
			c-22.183,52.447-53.944,99.553-94.401,140.009c-40.457,40.457-87.563,72.218-140.009,94.401
			c-54.289,22.963-111.97,34.606-171.439,34.606s-117.15-11.643-171.439-34.606c-52.447-22.183-99.553-53.944-140.009-94.401
			s-72.217-87.563-94.401-140.009C93.916,642.15,82.273,584.469,82.273,525s11.643-117.15,34.605-171.439
			c22.183-52.447,53.944-99.553,94.401-140.009c40.457-40.457,87.563-72.218,140.009-94.401
			C405.578,96.188,463.258,84.546,522.727,84.546 M522.727,65.909C269.178,65.909,63.636,271.451,63.636,525
			s205.542,459.091,459.091,459.091S981.818,778.549,981.818,525S776.276,65.909,522.727,65.909L522.727,65.909z"/>
	</g>
	<g>
		<path fill="#FFFFFF" d="M545.455,149.091c54.13,0,106.632,10.598,156.047,31.498c47.738,20.192,90.615,49.101,127.439,85.925
			c36.824,36.824,65.734,79.701,85.925,127.439c20.9,49.415,31.498,101.917,31.498,156.047s-10.598,106.632-31.498,156.047
			c-20.192,47.738-49.101,90.615-85.925,127.439c-36.824,36.824-79.701,65.734-127.439,85.925
			c-49.415,20.901-101.917,31.498-156.047,31.498s-106.632-10.598-156.047-31.498c-47.738-20.192-90.615-49.101-127.439-85.925
			s-65.734-79.701-85.925-127.439C155.143,656.632,144.545,604.13,144.545,550s10.598-106.632,31.498-156.047
			c20.192-47.738,49.101-90.615,85.925-127.439s79.701-65.734,127.439-85.925C438.823,159.688,491.325,149.091,545.455,149.091
			 M545.455,131.818C314.5,131.818,127.273,319.044,127.273,550s187.226,418.182,418.182,418.182S963.636,780.955,963.636,550
			S776.41,131.818,545.455,131.818L545.455,131.818z"/>
	</g>
	<g>
		<path fill="#FFFFFF" d="M568.182,213.636c48.791,0,96.114,9.552,140.654,28.391c43.029,18.2,81.676,44.258,114.869,77.45
			s59.25,71.839,77.45,114.869c18.839,44.54,28.391,91.863,28.391,140.654s-9.552,96.114-28.391,140.654
			c-18.2,43.029-44.258,81.676-77.45,114.869s-71.839,59.25-114.869,77.45c-44.54,18.839-91.863,28.391-140.654,28.391
			s-96.114-9.552-140.654-28.391c-43.029-18.2-81.676-44.258-114.869-77.45c-33.192-33.192-59.25-71.839-77.45-114.869
			c-18.839-44.54-28.391-91.863-28.391-140.654s9.552-96.114,28.391-140.654c18.2-43.029,44.258-81.676,77.45-114.869
			c33.192-33.192,71.839-59.25,114.869-77.45C472.068,223.189,519.391,213.636,568.182,213.636 M568.182,197.727
			c-208.362,0-377.273,168.911-377.273,377.273S359.82,952.273,568.182,952.273S945.454,783.362,945.454,575
			S776.544,197.727,568.182,197.727L568.182,197.727z"/>
	</g>
	<g>
		<path fill="#FFFFFF" d="M590.909,278.182c43.452,0,85.596,8.507,125.262,25.284c38.32,16.208,72.738,39.414,102.298,68.974
			s52.766,63.978,68.974,102.298c16.777,39.666,25.284,81.81,25.284,125.262s-8.507,85.596-25.284,125.262
			c-16.208,38.32-39.414,72.738-68.974,102.298s-63.978,52.766-102.298,68.974c-39.666,16.777-81.81,25.284-125.262,25.284
			s-85.596-8.507-125.262-25.284c-38.32-16.208-72.738-39.414-102.298-68.974s-52.766-63.978-68.974-102.298
			c-16.777-39.666-25.284-81.81-25.284-125.262s8.507-85.596,25.284-125.262c16.208-38.32,39.414-72.738,68.974-102.298
			s63.978-52.766,102.298-68.974C505.313,286.689,547.458,278.182,590.909,278.182 M590.909,263.636
			c-185.769,0-336.364,150.595-336.364,336.364S405.14,936.364,590.909,936.364S927.273,785.768,927.273,600
			S776.678,263.636,590.909,263.636L590.909,263.636z"/>
	</g>
	<g>
		<path fill="#FFFFFF" d="M613.636,342.727c38.112,0,75.078,7.461,109.869,22.177c33.611,14.216,63.8,34.571,89.728,60.499
			c25.928,25.928,46.282,56.117,60.499,89.728c14.716,34.792,22.177,71.757,22.177,109.869s-7.461,75.078-22.177,109.869
			c-14.216,33.611-34.571,63.8-60.499,89.728c-25.928,25.928-56.117,46.282-89.728,60.499
			c-34.792,14.716-71.757,22.177-109.869,22.177s-75.078-7.461-109.869-22.177c-33.611-14.216-63.8-34.571-89.728-60.499
			c-25.928-25.928-46.282-56.117-60.499-89.728c-14.716-34.792-22.177-71.757-22.177-109.869s7.461-75.078,22.177-109.869
			c14.216-33.611,34.571-63.8,60.499-89.728s56.117-46.282,89.728-60.499C538.559,350.189,575.524,342.727,613.636,342.727
			 M613.636,329.545c-163.175,0-295.455,132.28-295.455,295.455s132.28,295.455,295.455,295.455S909.091,788.175,909.091,625
			S776.811,329.545,613.636,329.545L613.636,329.545z"/>
	</g>
	<g>
		<path fill="#FFFFFF" d="M636.364,407.273c32.773,0,64.56,6.416,94.477,19.07c28.902,12.225,54.862,29.728,77.157,52.023
			s39.799,48.255,52.023,77.157c12.654,29.917,19.07,61.704,19.07,94.477s-6.416,64.56-19.07,94.477
			c-12.225,28.902-29.728,54.862-52.023,77.157s-48.255,39.799-77.157,52.023c-29.917,12.654-61.704,19.07-94.477,19.07
			s-64.56-6.416-94.477-19.07c-28.902-12.225-54.862-29.728-77.157-52.023c-22.295-22.295-39.799-48.255-52.023-77.157
			c-12.654-29.917-19.07-61.704-19.07-94.477s6.416-64.56,19.07-94.477c12.225-28.902,29.728-54.862,52.023-77.157
			c22.295-22.295,48.255-39.799,77.157-52.023C571.804,413.689,603.59,407.273,636.364,407.273 M636.364,395.455
			c-140.582,0-254.545,113.964-254.545,254.545s113.964,254.545,254.545,254.545S890.909,790.582,890.909,650
			S776.945,395.455,636.364,395.455L636.364,395.455z"/>
	</g>
	<g>
		<path fill="#FFFFFF" d="M659.091,471.818c27.434,0,54.042,5.371,79.084,15.963c24.193,10.233,45.924,24.885,64.587,43.548
			c18.663,18.663,33.315,40.393,43.548,64.587c10.592,25.043,15.963,51.65,15.963,79.084s-5.371,54.042-15.963,79.084
			c-10.233,24.194-24.885,45.924-43.548,64.587c-18.663,18.663-40.393,33.315-64.587,43.548
			c-25.043,10.592-51.65,15.963-79.084,15.963c-27.434,0-54.042-5.371-79.084-15.963c-24.193-10.233-45.924-24.885-64.587-43.548
			c-18.663-18.663-33.315-40.393-43.548-64.587c-10.592-25.043-15.963-51.65-15.963-79.084s5.371-54.042,15.963-79.084
			c10.233-24.194,24.885-45.924,43.548-64.587c18.663-18.663,40.393-33.315,64.587-43.548
			C605.049,477.189,631.657,471.818,659.091,471.818 M659.091,461.364c-117.988,0-213.636,95.648-213.636,213.636
			s95.648,213.636,213.636,213.636S872.727,792.988,872.727,675S777.079,461.364,659.091,461.364L659.091,461.364z"/>
	</g>
	<g>
		<path fill="#FFFFFF" d="M681.818,536.364c43.709,0,84.802,17.021,115.708,47.928s47.928,72,47.928,115.708
			s-17.021,84.802-47.928,115.708s-72,47.928-115.708,47.928s-84.802-17.021-115.708-47.928s-47.928-72-47.928-115.708
			s17.021-84.802,47.928-115.708S638.109,536.364,681.818,536.364 M681.818,527.273c-95.395,0-172.727,77.333-172.727,172.727
			s77.333,172.727,172.727,172.727S854.545,795.395,854.545,700S777.213,527.273,681.818,527.273L681.818,527.273z"/>
	</g>
	<g>
		<path fill="#FFFFFF" d="M704.545,600.909c33.146,0,64.308,12.908,87.746,36.345c23.438,23.438,36.345,54.6,36.345,87.746
			s-12.908,64.308-36.345,87.746c-23.438,23.438-54.6,36.345-87.746,36.345s-64.308-12.908-87.746-36.345
			c-23.438-23.438-36.345-54.6-36.345-87.746s12.908-64.308,36.345-87.746C640.238,613.817,671.4,600.909,704.545,600.909
			 M704.545,593.182c-72.801,0-131.818,59.017-131.818,131.818s59.017,131.818,131.818,131.818S836.364,797.801,836.364,725
			S777.347,593.182,704.545,593.182L704.545,593.182z"/>
	</g>
	<g>
		<path fill="#FFFFFF" d="M727.273,665.455c46.619,0,84.545,37.927,84.545,84.545s-37.927,84.545-84.545,84.545
			S642.727,796.619,642.727,750S680.654,665.455,727.273,665.455 M727.273,659.091c-50.208,0-90.909,40.701-90.909,90.909
			s40.701,90.909,90.909,90.909s90.909-40.701,90.909-90.909S777.48,659.091,727.273,659.091L727.273,659.091z"/>
	</g>
	<g>
		<path fill="#FFFFFF" d="M750,730c24.813,0,45,20.187,45,45s-20.187,45-45,45s-45-20.187-45-45S725.187,730,750,730 M750,725
			c-27.614,0-50,22.386-50,50s22.386,50,50,50s50-22.386,50-50S777.614,725,750,725L750,725z"/>
	</g>
</g>
</svg>
